<svg xmlns="http://www.w3.org/2000/svg" viewBox="0 0 283.49999 52.76158" id="svg53" width="283.5" height="52.762"><g id="Layer_2" fill="none"><path class="st0" id="rect5" d="M.1.062h52.6v52.6H.1z"></path><path class="st0" id="rect7" d="M-13.1 52.662H.1v13.2h-13.2z"></path><path class="st0" id="rect9" d="M-13.1-13.138H.1v13.2h-13.2z"></path><path class="st0" id="rect11" d="M-13.1-13.138h309.7v78.9H-13.1z"></path><path class="st0" id="rect13" d="M-13.1-13.138h309.7v78.9H-13.1z"></path><path class="st0" id="rect15" d="M283.5-13.138h13.2v13.2h-13.2z"></path><path class="st0" id="rect17" d="M283.5 52.662h13.2v13.2h-13.2z"></path></g><g id="Layer_4"><g id="g32"><g id="g22"><path class="st1" d="M45.8 1.662c-.3-.3-.6-.5-.9-.6-12.9-4.2-41.7 4.7-44.6 15.5-.4 1.5-.4 3.1 0 4.9 0-.4 0-.7.1-1.1.5-1.9 2.5-3.1 4.5-2.6l23.6 6.3 17.3-17.2c1.4-1.4 1.4-3.7 0-5.2z" id="path20" clip-rule="evenodd" fill="#00f100" fill-rule="evenodd"></path></g><g id="g26"><path class="st2" d="M.5 20.362c-.1.4-.1.7-.1 1.1 2.9 13.3 25 33.8 35.7 30.9 1.5-.4 2.9-1.2 4.2-2.5-.3.2-.6.3-1 .4-1.9.5-4-.6-4.5-2.6l-6.3-23.6-23.6-6.2c-1.9-.6-3.9.6-4.4 2.5z" id="path24" clip-rule="evenodd" fill="#0d793d" fill-rule="evenodd"></path></g><g id="g30"><path class="st3" d="M39.3 50.262c.4-.1.7-.2 1-.4 10.1-9.1 16.8-38.5 8.9-46.4-1.1-1.1-2.5-1.9-4.3-2.4l.9.6c1.4 1.4 1.4 3.7 0 5.2l-17.3 17.3 6.3 23.6c.6 1.9 2.6 3.1 4.5 2.5z" id="path28" clip-rule="evenodd" fill="#00bf00" fill-rule="evenodd"></path></g></g><g id="g50" fill="#252a36"><path class="st4" d="M97.9 26.262l3-9.8h6.9l-8.7 26.3h-6.7l-3.4-10.9c-1.3-4.4-2-7-2.2-7.9-.1.4-.8 3-2.2 7.9l-3.3 10.8h-6.7l-8.7-26.3h6.9l3 9.8c.7 2.3 1.6 5.4 2.6 9.1 1-3.8 1.8-6.8 2.5-9.2l2.9-9.8h6.1l2.9 9.8c.7 2.3 1.5 5.4 2.5 9.2.8-3.3 1.7-6.3 2.6-9z" id="path34"></path><path class="st4" d="M132.3 42.762h-6.4c-.3-.5-.5-1.6-.7-3.2-1.8 2.6-4.6 3.8-8.5 3.8-2.9 0-5.2-.7-6.9-2.1-1.7-1.4-2.6-3.3-2.6-5.8 0-4.8 3.4-7.5 10.1-8.2l4-.4c1.3-.2 2.3-.5 2.9-.9.6-.5.9-1.1.9-2.1 0-1.1-.4-1.9-1.1-2.5-.7-.5-2-.8-3.7-.8-1.9 0-3.2.3-4 .9-.8.6-1.3 1.7-1.4 3.2h-6.3c.4-6 4.3-9 11.8-9 7.3 0 11 2.6 11 7.9v14c-.1 2.5.2 4.1.9 5.2zm-14-4c2 0 3.6-.6 4.9-1.7 1.3-1.1 1.9-2.7 1.9-4.8v-2.4c-.6.5-1.6.9-3 1.1l-3.5.4c-1.7.2-2.9.6-3.6 1.2-.7.6-1.1 1.5-1.1 2.6s.4 2 1.1 2.6c.7.7 1.8 1 3.3 1z" id="path36"></path><path class="st4" d="M150.2 23.062l2.1-6.6h6.7l-10.1 28.4c-1.1 3-2.4 5.1-4.1 6.2-1.7 1.2-4.1 1.7-7.2 1.7-1.1 0-2-.1-2.8-.2v-5.1h2.4c1.4 0 2.5-.4 3.2-1.2.7-.8 1.1-1.8 1.1-3.1s-.4-3-1.2-5.3l-7.7-21.6h6.9l2.1 6.6c1.5 4.7 2.9 9.6 4.2 14.7 1.2-3.7 2.6-8.6 4.4-14.5z" id="path38"></path><path class="st4" d="M171.1 43.462c-7.7 0-11.7-3-12-9.1h6.3c.2 1.6.7 2.8 1.6 3.5.9.7 2.3 1 4.3 1 3.5 0 5.2-1.1 5.2-3.2 0-1-.4-1.7-1.1-2.2-.7-.5-2.1-.9-4-1.3l-3-.5c-5.7-1-8.6-3.6-8.6-8 0-2.5 1-4.4 2.9-5.8 1.9-1.4 4.6-2.1 8.1-2.1 7.5 0 11.4 3 11.6 8.9h-6.1c-.1-1.6-.6-2.7-1.5-3.3-.9-.7-2.3-1-4.1-1-3.1 0-4.6 1-4.6 3.1 0 .9.3 1.6 1 2.1s1.8.9 3.4 1.1l3.3.5c3.2.6 5.5 1.5 7 2.8 1.4 1.3 2.2 3 2.2 5.3 0 2.7-1 4.7-3.1 6.1-2.2 1.4-5.1 2.1-8.8 2.1z" id="path40"></path><path class="st4" d="M199 16.362v4.9h-5.2v14.2c0 .9.2 1.4.7 1.8.5.3 1.2.5 2.3.5h2.2v4.9c-1.4.1-2.5.2-3.4.2-2.9 0-4.9-.5-6.2-1.6-1.3-1.1-2-2.8-2-5.1v-14.9h-4.1v-4.9h4.1v-7.7h6.4v7.7z" id="path42"></path><path class="st4" d="M223.7 39.562c-2.4 2.5-5.7 3.8-9.7 3.8-4 0-7.2-1.3-9.7-3.8-2.5-2.5-3.7-5.8-3.7-10s1.2-7.5 3.7-10c2.4-2.5 5.7-3.8 9.7-3.8 4 0 7.2 1.2 9.7 3.7 2.4 2.5 3.7 5.8 3.7 10s-1.2 7.6-3.7 10.1zm-14.7-3.7c1.2 1.5 2.9 2.2 5 2.2s3.8-.7 5-2.2c1.2-1.5 1.8-3.6 1.8-6.2 0-2.7-.6-4.8-1.8-6.2-1.2-1.5-2.9-2.2-5-2.2s-3.8.7-5 2.2c-1.2 1.5-1.8 3.6-1.8 6.3 0 2.5.6 4.6 1.8 6.1z" id="path44"></path><path class="st4" d="M245.2 15.762c2.9 0 5.1.8 6.8 2.5 1.6 1.7 2.5 4 2.5 7v17.4h-6.4v-16.3c0-3.3-1.6-5-4.9-5-1.6 0-3 .6-4.2 1.8-1.1 1.2-1.7 2.8-1.7 4.9v14.7h-6.4v-26.4h6.2v3.8c1.9-2.9 4.7-4.4 8.1-4.4z" id="path46"></path><path class="st4" d="M283.5 29.962v1.5h-19.7c.2 2.2.9 3.9 2.1 5.1 1.2 1.1 2.7 1.7 4.7 1.7 2.9 0 4.9-1.3 6-3.8h6.2c-.7 2.7-2.1 4.8-4.3 6.4-2.2 1.6-4.8 2.4-8 2.4-3.9 0-7.1-1.3-9.5-3.8-2.4-2.5-3.6-5.8-3.6-10 0-4.1 1.2-7.5 3.6-10 2.4-2.5 5.6-3.8 9.4-3.8 4 0 7.1 1.3 9.5 3.9 2.4 2.8 3.6 6.2 3.6 10.4zm-13.1-9.2c-3.8 0-6 2.1-6.6 6.3H277c-.3-1.9-1-3.5-2.1-4.6-1.1-1.1-2.6-1.7-4.5-1.7z" id="path48"></path></g></g></svg>
